<svg width="42" height="49" viewBox="0 0 42 49" fill="none" xmlns="http://www.w3.org/2000/svg">
<path d="M41.0219 23.7326C41.0219 23.421 41.0219 18.3298 41.0219 17.0871C41.0219 15.8444 40.2125 14.6029 38.9505 14.6029C38.5365 14.6029 36.672 10.0461 36.672 10.0461C36.672 10.0461 36.8812 10.5633 36.465 8.07907C36.0535 5.59145 30.4597 1.13925 29.5273 0.621783C28.5952 0.103359 27.7674 0.518424 27.7674 0.932148C27.7674 1.34606 27.7674 2.58762 27.7674 2.58762H25.075V1.64504C25.075 0.737775 24.3383 0 23.431 0H20.5182H17.6053C16.698 0 15.9613 0.737775 15.9613 1.64504V2.58762H13.269C13.269 2.58762 13.269 1.34606 13.269 0.932148C13.269 0.518424 12.4414 0.103359 11.509 0.621783C10.5767 1.13915 4.98523 5.59145 4.57141 8.07907C4.15529 10.5633 4.3645 10.0461 4.3645 10.0461C4.3645 10.0461 2.49991 14.6029 2.08379 14.6029C0.826255 14.6029 0.0123001 15.8444 0.0123001 17.0871C0.0123001 18.3298 0.0123001 23.421 0.0123001 23.7326C0.0123001 24.0418 -0.628911 35.0691 7.34794 43.0459C10.661 46.359 15.6317 48.2917 19.586 49H21.4505C25.4047 48.2917 30.3755 46.359 33.6886 43.0459C41.6654 35.0691 41.0219 24.0418 41.0219 23.7326ZM25.2821 7.35258C25.2821 6.89551 25.6527 6.52475 26.1098 6.52475C26.5669 6.52475 26.9397 6.89551 26.9397 7.35258V9.8379C26.9397 10.295 26.5669 10.6668 26.1098 10.6668C25.6527 10.6668 25.2821 10.295 25.2821 9.8379V7.35258ZM14.0967 7.35258C14.0967 6.89551 14.4674 6.52475 14.9267 6.52475C15.3838 6.52475 15.7544 6.89551 15.7544 7.35258V9.8379C15.7544 10.295 15.3838 10.6668 14.9267 10.6668C14.4674 10.6668 14.0967 10.295 14.0967 9.8379V7.35258ZM6.33139 17.5031H8.8168C9.27387 17.5031 9.64444 17.8727 9.64444 18.3297C9.64444 18.7868 9.27387 19.1585 8.8168 19.1585H6.33139C5.87431 19.1585 5.50145 18.7868 5.50145 18.3297C5.50145 17.8727 5.87431 17.5031 6.33139 17.5031ZM20.5182 47.0582C13.4509 47.0582 7.1306 40.1353 7.32957 36.1423C7.98676 36.4083 8.73487 36.6516 9.60118 36.8666C12.1365 37.4896 15.6475 37.8796 20.5182 37.8796C27.0146 37.8762 31.0873 37.1928 33.6636 36.165C33.6795 36.1592 33.6909 36.1525 33.7045 36.1468C33.908 39.8443 27.5832 47.0582 20.5182 47.0582ZM35.3485 32.0004C35.344 32.2586 35.2757 32.5427 34.937 32.935C34.4345 33.5159 33.2338 34.271 30.9349 34.8314C28.6405 35.3976 25.2774 35.7854 20.5183 35.7843C14.1741 35.7889 10.3062 35.0896 8.1551 34.2198C7.075 33.7889 6.43829 33.3215 6.0995 32.9351C5.76071 32.5429 5.69247 32.2587 5.68797 32.0005V23.578C5.68797 23.2404 5.96092 22.9675 6.29732 22.9675H34.7415C35.0757 22.9675 35.3485 23.2392 35.3485 23.578V32.0004ZM34.7051 19.1586H32.2197C31.7627 19.1586 31.392 18.7869 31.392 18.3298C31.392 17.8727 31.7627 17.5032 32.2197 17.5032H34.7051C35.1621 17.5032 35.5327 17.8727 35.5327 18.3298C35.5327 18.7869 35.1621 19.1586 34.7051 19.1586Z" fill="white"/>
<path d="M9.15771 30.2894L14.7607 25.7041H9.15771V30.2894Z" fill="white"/>
</svg>
